<?xml version="1.0" encoding="UTF-8" standalone="no"?>
<!-- Created with Inkscape (http://www.inkscape.org/) -->

<svg
   width="210mm"
   height="297mm"
   viewBox="0 0 210 297"
   version="1.1"
   id="svg5"
   inkscape:version="1.1.2 (0a00cf5339, 2022-02-04)"
   sodipodi:docname="holobot.svg"
   xmlns:inkscape="http://www.inkscape.org/namespaces/inkscape"
   xmlns:sodipodi="http://sodipodi.sourceforge.net/DTD/sodipodi-0.dtd"
   xmlns="http://www.w3.org/2000/svg"
   xmlns:svg="http://www.w3.org/2000/svg">
  <sodipodi:namedview
     id="namedview7"
     pagecolor="#ffffff"
     bordercolor="#666666"
     borderopacity="1.0"
     inkscape:pageshadow="2"
     inkscape:pageopacity="0.0"
     inkscape:pagecheckerboard="0"
     inkscape:document-units="mm"
     showgrid="false"
     inkscape:zoom="0.27055415"
     inkscape:cx="134.9083"
     inkscape:cy="-384.39624"
     inkscape:window-width="1920"
     inkscape:window-height="1011"
     inkscape:window-x="0"
     inkscape:window-y="32"
     inkscape:window-maximized="1"
     inkscape:current-layer="layer1" />
  <defs
     id="defs2" />
  <g
     inkscape:label="Layer 1"
     inkscape:groupmode="layer"
     id="layer1">
    <g
       id="g29254">
      <path
         style="fill:#000000;stroke-width:0.264583"
         d="m 72.781348,169.78492 c -1.89177,-0.12291 -5.06893,-0.36736 -7.06037,-0.54324 -1.99143,-0.17587 -3.80611,-0.24865 -4.03262,-0.16173 -0.44966,0.17255 -5.01542,-1.06916 -7.22014,-1.9636 -0.75888,-0.30788 -1.44225,-0.75656 -1.51858,-0.99708 -0.5584,-1.75935 0.36234,-6.90549 1.68548,-9.42044 0.30329,-0.57647 0.55144,-1.20927 0.55144,-1.40623 0,-0.19695 0.47625,-2.03866 1.05833,-4.0927 0.58208,-2.05402 1.05833,-3.89177 1.05833,-4.08387 0,-0.1921 -0.28382,-0.34927 -0.63072,-0.34927 -0.51742,0 -0.73807,-0.26447 -1.22822,-1.47211 l -0.59749,-1.47212 -1.08689,0.21534 c -0.59778,0.11844 -2.09988,0.20354 -3.33798,0.1891 -2.53009,-0.0295 -3.48857,-0.38758 -4.61233,-1.72309 -0.6533,-0.7764 -0.70438,-1.00807 -0.65276,-2.96075 l 0.056,-2.11844 -1.51283,-1.08366 -1.51283,-1.08365 -0.12244,-3.175 c -0.0673,-1.74625 -0.23384,-4.30699 -0.37001,-5.69052 l -0.24757,-2.51553 2.04106,-2.145 c 1.12258,-1.17975 2.26803,-2.26557 2.54543,-2.41293 0.30544,-0.16225 1.8266,-0.21429 3.85673,-0.13195 2.79689,0.11343 3.46015,0.0653 4.00295,-0.29033 0.74998,-0.4914 4.33808,-0.66222 5.15354,-0.24535 0.32729,0.16732 3.06877,0.17118 7.78137,0.011 l 7.27604,-0.24737 1.93666,-1.23578 c 1.06517,-0.67967 2.52793,-1.68838 3.25059,-2.24157 1.51008,-1.15597 1.51189,-1.18187 0.35536,-5.07962 -1.12487,-3.79106 -6.94239,-21.216331 -8.09382,-24.243471 -0.42456,-1.1162 -2.48023,-1.22094 -6.45698,-0.32901 -1.73946,0.39014 -3.59594,0.76175 -4.12552,0.8258 -1.05277,0.12733 -2.07983,-0.28149 -2.07983,-0.82787 0,-0.19061 -0.21986,-0.54553 -0.48857,-0.7887 -0.9785,-0.88553 -1.31091,-3.76751 -0.63066,-5.46778 0.23111,-0.57768 0.61515,-0.75236 2.82563,-1.28525 1.40699,-0.3392 2.50478,-0.67011 2.43953,-0.73536 -0.0652,-0.0653 -0.87409,0.0771 -1.79741,0.31637 -2.71184,0.70271 -3.79155,0.11796 -4.90102,-2.65431 -0.41755,-1.04334 -0.43539,-2.65861 -0.0414,-3.74815 0.23261,-0.64328 0.56575,-0.95967 1.25677,-1.19358 l 0.94026,-0.31828 -1.11073,-0.22712 c -0.78794,-0.16111 -1.16309,-0.3921 -1.29091,-0.79481 -0.0991,-0.31223 -0.38535,-0.75293 -0.63613,-0.97934 -0.93678,-0.84574 -1.22232,-3.58417 -0.51926,-4.97978 0.20048,-0.39794 0.3757,-0.75063 0.3894,-0.78376 0.0137,-0.0331 1.08919,-0.36651 2.39001,-0.74086 5.83927,-1.68044 5.95343,-1.72362 6.24435,-2.36212 0.22752,-0.49935 0.56352,-0.65497 1.72848,-0.80052 0.92829,-0.11598 1.60164,-0.36238 1.88058,-0.68816 0.23898,-0.27911 0.7508,-0.50748 1.13737,-0.50748 0.53346,0 0.7831,-0.19374 1.03582,-0.80386 0.4791,-1.15666 1.10311,-1.41 2.27104,-0.92201 0.53042,0.22162 1.41835,0.40295 1.97319,0.40295 0.55484,0 1.32008,0.11835 1.70053,0.263 0.52613,0.20003 1.06669,0.13669 2.25784,-0.26458 0.88217,-0.29718 2.2677,-0.52758 3.17266,-0.52758 1.22672,0 1.78766,-0.1339 2.37255,-0.56632 l 0.76598,-0.56632 1.23914,0.58246 c 1.16262,0.5465 1.30109,0.55767 2.24264,0.18093 0.91577,-0.36642 1.12083,-0.36021 2.34516,0.071 1.53447,0.54038 2.40925,1.23097 2.40925,1.90197 0,1.27655 6.3257,0.8012 13.170472,-0.98971 5.2349,-1.36969 6.52808,-1.59213 6.79022,-1.16797 0.30389,0.49169 1.199,0.32167 2.15817,-0.40992 1.0143,-0.77365 1.71261,-0.9893 10.68948,-3.30118 5.56462,-1.4331 6.52341,-1.60674 9.12812,-1.65313 2.36623,-0.0421 3.05247,-0.14646 3.67012,-0.55785 0.58709,-0.39103 1.29589,-0.51726 3.11959,-0.55554 1.63192,-0.0343 2.49941,-0.16922 2.81218,-0.4375 0.68153,-0.58458 1.31123,-0.73846 1.58168,-0.3865 0.93194,1.21283 1.89722,6.282 1.90814,10.02061 0.004,1.52691 -0.0657,1.79058 -0.514,1.93288 -0.28555,0.0906 -0.7717,0.0296 -1.08035,-0.13555 -0.44677,-0.2391 -0.65675,-0.21382 -1.03006,0.12402 -0.25988,0.23518 -0.66286,0.34991 -0.90403,0.25736 -0.25312,-0.0971 -0.43514,-0.0357 -0.43514,0.14694 0,0.20778 -0.25602,0.25768 -0.75724,0.14759 -0.86553,-0.1901 -3.27463,0.33726 -3.068,0.6716 0.17445,0.28225 -2.42627,2.35194 -3.01154,2.39663 -0.2416,0.0184 -1.21317,0.0624 -2.15906,0.0978 -0.94588,0.0353 -2.73182,0.31379 -3.96875,0.6188 -1.56349,0.38554 -2.66465,0.50682 -3.61283,0.39792 -0.82105,-0.0943 -2.24268,0.0128 -3.57188,0.26897 -1.2144,0.23409 -2.54117,0.48044 -2.94839,0.54744 -3.0098,0.4952 -4.58248,1.00208 -4.82526,1.55521 -0.14795,0.33707 -0.69992,0.7289 -1.31351,0.93243 -2.28137,0.75672 -9.0283,2.48818 -9.59115,2.46136 -0.32742,-0.0156 -0.59532,0.0782 -0.59532,0.20849 0,0.13027 -0.23812,0.17458 -0.52916,0.0985 -0.31792,-0.0831 -0.52917,-0.008 -0.52917,0.18792 0,0.19612 -0.21127,0.27106 -0.52953,0.18783 -0.29124,-0.0762 -0.46281,-0.0305 -0.38126,0.10143 0.0815,0.13195 0.0319,0.23991 -0.11029,0.23991 -0.1422,0 -0.47665,0.0708 -0.74322,0.15725 -0.40308,0.13078 -0.41785,0.1092 -0.0878,-0.12824 0.21829,-0.15702 0.26263,-0.28731 0.0985,-0.28954 -0.16408,-0.002 -0.44655,0.17454 -0.6277,0.39282 -0.18116,0.21828 -0.46363,0.39505 -0.62771,0.39283 -0.164092,-0.002 -0.119742,-0.11947 0.0985,-0.26054 0.24276,-0.15688 0.27355,-0.25805 0.0793,-0.26053 -0.17467,-0.002 -0.427822,0.19294 -0.562562,0.4337 -0.14743,0.26344 -0.41606,0.3721 -0.67461,0.27289 -0.23629,-0.0907 -0.42962,-0.059 -0.42962,0.0704 0,0.12939 -0.35583,0.31341 -0.79072,0.40893 -0.4349,0.0955 -0.85864,0.28357 -0.94166,0.41789 -0.083,0.13433 -0.43894,0.24423 -0.79093,0.24423 -0.60319,0 -7.91967,3.22216 -8.42946,3.71231 -0.26443,0.25425 -0.41679,-0.12632 4.33956,10.83977 3.34175,7.70464 5.18041,11.77589 8.00591,17.727091 l 1.444612,3.04271 1.78911,0.61252 c 0.98402,0.3369 2.16132,0.96142 2.61624,1.38784 0.45492,0.42642 0.89881,0.77586 0.98643,0.77654 0.0876,7.9e-4 1.01014,0.82547 2.05005,1.8329 1.40274,1.35892 1.84511,1.95058 1.71396,2.29236 -0.12993,0.33859 -0.0839,0.40329 0.17365,0.24411 0.21701,-0.13412 0.28677,-0.11358 0.18322,0.054 -0.092,0.14879 0.11136,0.98132 0.45181,1.85006 0.34046,0.86873 0.70959,2.16437 0.82028,2.87919 0.16442,1.06181 0.24433,1.20283 0.43659,0.77052 0.15182,-0.3414 0.19894,0.27116 0.13279,1.72633 -0.1735,3.81667 -1.54693,6.332 -5.99189,10.97366 -4.07132,4.25149 -6.34747,7.2792 -6.34747,8.44333 0,0.23671 0.40476,0.51205 0.99219,0.67493 0.5457,0.15132 1.46843,0.54588 2.05052,0.8768 0.93547,0.53184 1.06767,0.72921 1.13875,1.70022 0.0741,1.01173 0.001,1.15233 -0.92132,1.77923 -0.55095,0.37439 -1.12292,0.68252 -1.27104,0.68475 -0.951,0.0143 -0.94301,0.41798 0.0926,4.68057 0.66084,2.72003 1.2473,4.54094 1.6286,5.05667 0.56243,0.76073 0.58833,0.98883 0.46159,4.06515 -0.15677,3.8051 -0.6045,5.22248 -1.90327,6.02516 -1.24009,0.76641 -9.621942,2.81883 -9.993672,2.4471 -0.11602,-0.11602 -1.61027,-0.0665 -3.32056,0.11008 -4.36062,0.45019 -12.52722,0.62962 -16.60335,0.3648 z m 37.529852,-55.9702 c -0.0862,-0.22456 -0.21342,-0.35154 -0.28278,-0.28218 -0.0694,0.0694 -0.0476,0.25308 0.0483,0.40828 0.2609,0.42213 0.41338,0.34013 0.23448,-0.1261 z"
         id="path836" />
      <path
         style="fill:none;stroke:#000000;stroke-width:3.965;stroke-linecap:round;stroke-linejoin:miter;stroke-miterlimit:4;stroke-dasharray:none;stroke-opacity:1"
         d="m 156.20664,10.406828 c 0,2.13509 -19.62559,87.910001 -19.62559,87.910001"
         id="path29152" />
    </g>
    <text
       xml:space="preserve"
       style="font-size:22.5778px;line-height:1.25;font-family:sans-serif;stroke-width:0.264583"
       x="44.863842"
       y="190.24097"
       id="text6966"><tspan
         sodipodi:role="line"
         id="tspan6964"
         style="font-style:normal;font-variant:normal;font-weight:500;font-stretch:normal;font-family:ClanOT;-inkscape-font-specification:'ClanOT Medium';stroke-width:0.264583"
         x="44.863842"
         y="190.24097">HOLOBOT</tspan></text>
  </g>
</svg>
